<svg width="64" height="64" viewBox="0 0 64 64" fill="none" xmlns="http://www.w3.org/2000/svg">
  <path
    d="M47 2H17C15.4091 2.00141 13.8838 2.63401 12.7589 3.75892C11.634 4.88383 11.0014 6.40913 11 8V58C11.0014 59.0604 11.4233 60.077 12.1731 60.8269C12.923 61.5767 13.9396 61.9986 15 62H49C50.0604 61.9986 51.077 61.5767 51.8269 60.8269C52.5767 60.077 52.9986 59.0604 53 58V8C52.9986 6.40913 52.366 4.88383 51.2411 3.75892C50.1162 2.63401 48.5909 2.00141 47 2ZM49 58H15V30H49V58ZM49 26H15V8C15 7.46957 15.2107 6.96086 15.5858 6.58579C15.9609 6.21071 16.4696 6 17 6H47C47.5304 6 48.0391 6.21071 48.4142 6.58579C48.7893 6.96086 49 7.46957 49 8V26Z"
    fill="#1B2D45"/>
  <path d="M18 35H22V47H18V35Z" fill="#1B2D45"/>
  <path d="M18 13H22V21H18V13Z" fill="#1B2D45"/>
</svg>
